<svg xmlns="http://www.w3.org/2000/svg" width="450" height="450" viewBox="0 0 450 450"><g transform="translate(0)"><path d="M712,337a224.4,224.4,0,0,1-16.343,84.342c-.027.06-.047.113-.073.173v.007A224.008,224.008,0,0,1,667.1,471.873q-3.365,4.493-6.943,8.8c-.872,1.052-1.757,2.1-2.643,3.129q-6.84,7.938-14.392,15.211-1.757,1.7-3.555,3.355c-.28.26-.559.513-.839.772a224.918,224.918,0,0,1-18.406,15.111q-6.441,4.763-13.221,9.047-1.488.949-3,1.864-2.616,1.6-5.279,3.122-3.475,2-7.036,3.868c-.959.513-1.924,1.005-2.889,1.5-1.411.726-2.829,1.425-4.26,2.11-.246.12-.493.24-.739.353-.932.453-1.877.892-2.823,1.331a222.93,222.93,0,0,1-38.25,13.573c-.073.02-.14.033-.213.053-.859.22-1.724.433-2.59.639-.646.16-1.3.313-1.95.459a1.667,1.667,0,0,1-.246.06c-1.338.313-2.676.612-4.027.885-.759.16-1.518.319-2.277.473-.459.1-.925.186-1.385.273-.579.113-1.152.22-1.731.333-.319.067-.639.12-.965.173-.732.133-1.464.266-2.19.393-1.238.213-2.49.419-3.734.606-.905.14-1.8.273-2.709.4-1.065.153-2.13.293-3.2.426-.293.047-.586.08-.879.113l-1.138.14c-.766.093-1.531.18-2.3.26-.4.047-.792.087-1.192.127q-1.138.12-2.277.22c-.979.093-1.957.173-2.942.253-1.2.093-2.39.18-3.595.253-.772.047-1.544.093-2.323.133-1.984.107-3.967.18-5.964.233-.992.027-1.99.047-2.989.06h-.02c-.992.013-1.99.02-2.989.02a225.742,225.742,0,0,1-30.255-2.024q-11.034-1.478-21.715-4.007c-.286-.067-.572-.133-.852-.206-.719-.166-1.431-.346-2.143-.526-.632-.16-1.258-.326-1.891-.493a223.237,223.237,0,0,1-47-18.1c-.073-.04-.153-.08-.226-.12-.433-.226-.859-.446-1.285-.679q-1.408-.739-2.8-1.5-7.938-4.364-15.47-9.333-1.937-1.268-3.834-2.576c-.406-.28-.805-.559-1.2-.839-.419-.293-.839-.586-1.251-.879q-1.648-1.168-3.275-2.363-6.74-4.953-13.081-10.391a226.154,226.154,0,0,1-39.382-43.835q-5.841-8.507-10.9-17.561A223.928,223.928,0,0,1,262,337c0-124.262,100.737-225,225-225S712,212.737,712,337Z" transform="translate(-262 -112)" fill="#f5f5f5"/><path d="M654.35,624.287c.722-.167,1.437-.348,2.152-.528.635-.16,1.263-.327,1.9-.495.033-1.33.08-2.793.127-4.377.394-12.4,1.323-32.372,3.515-56.43q.18-1.935.361-3.9c.782-8.153,1.7-16.727,2.793-25.615.033-.294.073-.581.107-.875.889-7.2,1.9-14.6,3.034-22.14q1.193-7.909,2.58-15.992c.067-.374.134-.755.2-1.129.267-1.557.541-3.107.822-4.671.782-4.35,1.617-8.728,2.493-13.1,3.081-15.4,6.75-30.888,11.127-45.958a368.148,368.148,0,0,1,16.393-45.851,226.4,226.4,0,0,1,17.87-33.3c.1-.154.2-.3.3-.454,8.788-13.239,18.832-24.472,30.3-32.873l-2.379-3.248q-16.48,12.079-30.233,32.144c-.047.067-.087.127-.134.194a218.841,218.841,0,0,0-17.99,32.251A352.458,352.458,0,0,0,682.525,424.3q-6.576,22.073-11.8,47.829-1.834,9.072-3.5,18.591c-.187,1.083-.374,2.165-.561,3.255,0,.013-.007.033-.007.047-.287,1.671-.561,3.341-.842,5.032q-1.042,6.385-1.965,12.671-1.423,9.683-2.573,19.033-.381,3.088-.735,6.128-.5,4.29-.949,8.467-.632,5.814-1.156,11.381l-.1,1.023c-.053.588-.107,1.176-.16,1.758C655.466,588.775,654.617,612.412,654.35,624.287Z" transform="translate(-393.446 -180.549)" opacity="0.2"/><path d="M731.01,693.448c.073-.04.154-.08.227-.12,1.377-.715,2.74-1.443,4.1-2.192.448-5.333,1.049-11.194,1.838-17.355.167-1.27.334-2.56.521-3.856.094-.7.194-1.4.294-2.105.789-5.426,1.724-11.027,2.847-16.654,4.564-22.962,12.143-46.432,24.726-60.92.675-.782,1.363-1.53,2.078-2.259a45.213,45.213,0,0,1,5.754-5.045L771.02,579.7a51.505,51.505,0,0,0-7.886,7.211q-1.253,1.393-2.446,2.9c-11.581,14.575-18.812,36.154-23.316,57.519-1.176,5.573-2.165,11.14-3.007,16.56q-.321,2.125-.615,4.21C732.447,677.282,731.585,685.956,731.01,693.448Z" transform="translate(-418.926 -268.903)" opacity="0.2"/><circle cx="20.108" cy="20.108" r="20.108" transform="translate(358.879 97.081)" opacity="0.2"/><circle cx="20.108" cy="20.108" r="20.108" transform="translate(352.404 269.432)" opacity="0.2"/><path d="M698.96,318.032c4.264,24.056-5.149,45.839-5.149,45.839s-16.326-17.22-20.59-41.277,5.149-45.839,5.149-45.839S694.7,293.976,698.96,318.032Z" transform="translate(-399.179 -167.183)" opacity="0.2"/><path d="M789.447,409.537c-22.945,8.39-46,3.006-46,3.006s14.145-18.988,37.09-27.378,46-3.006,46-3.006S812.393,401.147,789.447,409.537Z" transform="translate(-423.463 -201.807)" opacity="0.2"/><path d="M802.089,643.166c-16.083,5.881-32.267,2.044-32.267,2.044s9.892-13.371,25.974-19.252,32.266-2.044,32.266-2.044S818.171,637.286,802.089,643.166Z" transform="translate(-432.213 -282.806)" opacity="0.2"/><path d="M701.96,648.27l.815.421C702.7,649.56,702.5,650.094,701.96,648.27Z" transform="translate(-409.09 -291.29)" fill="#2f2e41"/><path d="M703.441,647.921c.007.094.02.194.027.287l-.287-.147c.007-.087.013-.18.027-.274C703.274,646.618,703.193,645.235,703.441,647.921Z" transform="translate(-409.496 -290.657)" fill="#2f2e41"/><circle cx="109.737" cy="109.737" r="109.737" transform="translate(97.808 106.402)" fill="#333"/><path d="M66.457,0A66.457,66.457,0,1,1,0,66.457,66.457,66.457,0,0,1,66.457,0Z" transform="translate(150.036 188.259)" fill="#fdb797"/><path d="M676.815,641.327l-.08.02-15.457,3.709-32.184,7.725-4.391,1.056-48.945,11.742-4.157,1-118.747,28.5a222.979,222.979,0,0,1-23.49-10.579c-.074-.04-.154-.08-.227-.12-.434-.227-.862-.448-1.29-.682q-1.413-.742-2.813-1.51-7.969-4.381-15.531-9.369-1.945-1.273-3.849-2.586c-.408-.281-.809-.561-1.21-.842-.421-.294-.842-.588-1.256-.882q-1.654-1.173-3.288-2.372c11.535-20.964,39-34.9,66.467-42.523,20.73-5.761,25.288-24.693,24.893-41.54a98.2,98.2,0,0,0-.976-11.481,111.918,111.918,0,0,0-3.983-17.87l66.46,2.219,6.857,15.8a35.735,35.735,0,0,0-.18,5.226c.521,12.958,8.521,21.338,18.391,26.745,1.283.7,2.6,1.357,3.936,1.965C597.951,612.03,617,612.531,617,612.531a67.842,67.842,0,0,1,17.435.327q2.105.321,4.09.768a58.9,58.9,0,0,1,21.458,9.6A61.215,61.215,0,0,1,666.944,629,55.252,55.252,0,0,1,676.815,641.327Z" transform="translate(-308.671 -259.953)" fill="#fdb797"/><path d="M800.048,691.872c-.281.261-.561.515-.842.775a225.764,225.764,0,0,1-18.478,15.17q-6.466,4.782-13.272,9.082-1.494.952-3.007,1.871-2.626,1.6-5.3,3.134-3.488,2-7.064,3.883c-.962.515-1.931,1.009-2.9,1.5-1.417.728-2.84,1.43-4.277,2.118-.247.12-.495.241-.742.354l-2.827-2.346,33.2-40.578,6.676-8.16s2.666,0,8.781,4.451a87.551,87.551,0,0,1,9.556,8.247C799.714,691.544,799.881,691.7,800.048,691.872Z" transform="translate(-422.439 -301.737)" fill="#d90d52"/><path d="M700.19,687.022a7.614,7.614,0,0,1-.374,1.23,225.753,225.753,0,0,1-18.478,15.17,78.825,78.825,0,0,1-17.235,4.1s.5,2.513.956,6.856q-2.626,1.6-5.3,3.134-3.488,2-7.064,3.883c-.962.515-1.931,1.009-2.9,1.5-1.417.729-2.84,1.43-4.277,2.118-.247.12-.495.241-.742.354-.936.454-1.885.9-2.833,1.337a223.806,223.806,0,0,1-38.4,13.626c-.073.02-.14.033-.214.053-.862.221-1.731.434-2.6.642-.648.16-1.3.314-1.958.461a1.666,1.666,0,0,1-.247.06c-1.343.314-2.687.615-4.043.889-.762.16-1.524.321-2.286.474-.461.1-.929.187-1.39.274-.581.114-1.156.221-1.738.334-.321.067-.642.12-.969.174-.735.134-1.47.267-2.2.394-1.243.214-2.5.421-3.749.608-.909.14-1.811.274-2.72.4-1.069.154-2.138.294-3.214.428-.294.047-.588.08-.882.114l-1.143.14c-.768.094-1.537.18-2.312.261-.4.047-.8.087-1.2.127q-1.143.12-2.286.221c-.982.094-1.965.174-2.954.254-1.2.094-2.4.18-3.609.254-.775.047-1.55.094-2.332.134-1.991.107-3.983.18-5.988.234-1,.027-2,.047-3,.06h-.02c-1,.013-2,.02-3,.02a226.643,226.643,0,0,1-30.373-2.032q-11.077-1.483-21.8-4.023c-.287-.067-.575-.134-.855-.207-.722-.167-1.437-.348-2.152-.528-.635-.16-1.263-.327-1.9-.495a224.112,224.112,0,0,1-47.18-18.171c-.074-.04-.154-.08-.227-.12-.434-.227-.862-.448-1.29-.682,36.682-8.547,94.648-22.026,144.95-33.574q2.115-.481,4.2-.962c18.578-4.264,35.98-8.233,50.7-11.555l4.477-1c15.818-3.555,28.1-6.255,34.764-7.605a54.457,54.457,0,0,1,5.44-.956l13.907,21.552Z" transform="translate(-322.709 -297.342)" fill="#d90d52"/><circle cx="32.688" cy="32.688" r="32.688" transform="translate(74.863 104.401)" fill="#333"/><circle cx="32.688" cy="32.688" r="32.688" transform="translate(274.746 95.104)" fill="#333"/><path d="M668.007,266.687a32.686,32.686,0,0,1,29.181-32.494,32.688,32.688,0,1,0,0,64.989A32.687,32.687,0,0,1,668.007,266.687Z" transform="translate(-395.468 -152.841)" fill="#333"/><path d="M361.659,335.756a32.687,32.687,0,0,1-1.895-43.636,32.688,32.688,0,1,0,45.483,46.42,32.687,32.687,0,0,1-43.588-2.784Z" transform="translate(-290.29 -172.287)" fill="#333"/><path d="M538.914,359.777c-38.685,0-70.045,18.294-70.045,40.86,0,10.1,6.3,19.325,16.709,26.454l13.484-9.771L495.4,432.627c1.522.705,3.075,1.388,4.7,2.018l20.144-23.5v28.872a117.6,117.6,0,0,0,18.679,1.481c38.685,0,70.045-18.294,70.045-40.86S577.6,359.777,538.914,359.777Z" transform="translate(-331.402 -194.979)" fill="#333"/><path d="M674.855,303.876s-5.077,23.348,26.647,32.688Z" transform="translate(-399.994 -176.187)" fill="#333"/><path d="M457.279,310.235s11.674,26.1-23.348,37.777Z" transform="translate(-319.507 -178.321)" fill="#333"/><ellipse cx="5.538" cy="13.291" rx="5.538" ry="13.291" transform="translate(142.48 256.688) rotate(-15.639)" fill="#fdb797"/><ellipse cx="13.291" cy="5.538" rx="13.291" ry="5.538" transform="translate(277.429 269.888) rotate(-86.476)" fill="#fdb797"/></g></svg>