<svg xmlns="http://www.w3.org/2000/svg" width="450" height="450.017" viewBox="0 0 450 450.017"><path d="M712,337a224.237,224.237,0,0,1-18.12,88.6l-.746,1.717A225.372,225.372,0,0,1,447.958,558.625q-2.027-.359-4.047-.745a222.994,222.994,0,0,1-40.7-12q-3.205-1.288-6.364-2.669c-1.438-.626-2.876-1.271-4.3-1.937A225.275,225.275,0,0,1,262,337c0-124.263,100.737-225,225-225S712,212.737,712,337Z" transform="translate(-262 -112)" fill="#f5f5f5"/><path d="M493.6,631.617q-2.031-.36-4.056-.747c-.881-25.558-3.9-78.015-14.21-132.954-5.637-30.068-13.463-60.89-24.317-88.442a275.263,275.263,0,0,0-12.722-27.913c-10.968-20.715-24.27-38.154-40.4-49.969l2.375-3.242q20.124,14.75,36.172,41.416,4.813,7.986,9.247,17.039,4.753,9.687,9.066,20.568,2.752,6.925,5.317,14.33,11.168,32.153,18.987,73.372,1.731,9.106,3.3,18.66A946.134,946.134,0,0,1,493.6,631.617Z" transform="translate(-307.484 -184.999)" opacity="0.2"/><path d="M443.6,704.824c-1.441-.627-2.882-1.274-4.31-1.941-1.394-15.144-3.956-33.931-8.639-51.763a169.818,169.818,0,0,0-7.879-23.483c-5.344-12.509-12.262-23.143-21.208-29.7l2.375-3.236c9.367,6.858,16.592,17.7,22.176,30.381C432.4,639.371,436.6,656,439.393,671.894,441.468,683.7,442.776,695.1,443.6,704.824Z" transform="translate(-308.679 -273.658)" opacity="0.2"/><circle cx="20.073" cy="20.073" r="20.073" transform="translate(48.149 107.081)" opacity="0.2"/><circle cx="20.073" cy="20.073" r="20.073" transform="translate(54.613 279.461)" opacity="0.2"/><path d="M483.162,332.961c-4.257,24.015,5.14,45.76,5.14,45.76s16.3-17.191,20.555-41.206-5.14-45.76-5.14-45.76S487.419,308.947,483.162,332.961Z" transform="translate(-335.59 -172.158)" opacity="0.2"/><path d="M365.244,424.487c22.906,8.376,45.924,3,45.924,3s-14.121-18.955-37.027-27.331-45.923-3-45.923-3S342.338,416.111,365.244,424.487Z" transform="translate(-284.041 -206.799)" opacity="0.2"/><path d="M364.958,658.131c16.055,5.871,32.211,2.041,32.211,2.041s-9.874-13.348-25.93-19.219-32.211-2.041-32.211-2.041S348.9,652.261,364.958,658.131Z" transform="translate(-287.64 -287.789)" opacity="0.2"/><circle cx="87.909" cy="87.909" r="87.909" transform="translate(136.63 99.253)" fill="#fdb797"/><path d="M547.833,480.258s10.989,52.2,10.989,57.69,52.2,30.219,52.2,30.219l46.7-8.241L674.2,510.477s-27.471-41.207-27.471-57.69Z" transform="translate(-357.722 -226.102)" fill="#fdb797"/><path d="M736.513,561.191l-.747,1.721A225.865,225.865,0,0,1,490.052,694.5q-2.031-.36-4.056-.747a223.48,223.48,0,0,1-40.789-12.029q-3.212-1.291-6.378-2.675c-1.441-.627-2.882-1.274-4.31-1.941a225.219,225.219,0,0,1-36.859-21.535L387.24,625.349l5.857-4.47,12.048-9.2L418,601.866l3.342-2.555L471.786,560.8l3.723-2.842,26.218-20.014.007-.007s28.353,46.2,69.562,32.463S611.6,517.28,611.6,517.28Z" transform="translate(-304.672 -247.887)" fill="#d90d52"/><path d="M474.719,262.663s27.911-60.473,81.406-46.518,83.732,34.888,86.058,55.821S641.02,324.3,641.02,324.3s-5.815-43.029-43.029-33.725S502.63,292.9,502.63,292.9l-9.3,83.732s-10.467-15.118-22.1-5.815S437.505,281.27,474.719,262.663Z" transform="translate(-326.406 -146.203)" fill="#333"/><path d="M439.642,735.65q-3.212-1.291-6.378-2.675c-1.441-.627-2.882-1.274-4.31-1.941a226.053,226.053,0,0,1-58.434-39.161,79.053,79.053,0,0,1,11.155-12.6h41.209l6.178,20.775Z" transform="translate(-298.309 -301.808)" fill="#d90d52"/><path d="M855.415,576.32l35.352,6.244A225.452,225.452,0,0,1,852.9,641.653Z" transform="translate(-459.673 -267.346)" fill="#d90d52"/></svg>